<mxfile host="Electron" agent="Mozilla/5.0 (Windows NT 10.0; Win64; x64) AppleWebKit/537.36 (KHTML, like Gecko) draw.io/27.0.9 Chrome/134.0.6998.205 Electron/35.4.0 Safari/537.36" version="27.0.9">
  <diagram name="Page-1" id="z-HhkTtvaKCKD6aNpRYZ">
    <mxGraphModel dx="898" dy="919" grid="1" gridSize="10" guides="1" tooltips="1" connect="1" arrows="1" fold="1" page="1" pageScale="1" pageWidth="850" pageHeight="1100" math="0" shadow="0">
      <root>
        <mxCell id="0" />
        <mxCell id="1" parent="0" />
        <mxCell id="62lTSYrtV0QLQ5MVQQvt-18" style="edgeStyle=orthogonalEdgeStyle;rounded=0;orthogonalLoop=1;jettySize=auto;html=1;exitX=0.5;exitY=1;exitDx=0;exitDy=0;" edge="1" parent="1" source="62lTSYrtV0QLQ5MVQQvt-1" target="62lTSYrtV0QLQ5MVQQvt-2">
          <mxGeometry relative="1" as="geometry" />
        </mxCell>
        <mxCell id="62lTSYrtV0QLQ5MVQQvt-19" style="edgeStyle=orthogonalEdgeStyle;rounded=0;orthogonalLoop=1;jettySize=auto;html=1;exitX=0.5;exitY=1;exitDx=0;exitDy=0;" edge="1" parent="1" source="62lTSYrtV0QLQ5MVQQvt-1" target="62lTSYrtV0QLQ5MVQQvt-3">
          <mxGeometry relative="1" as="geometry" />
        </mxCell>
        <mxCell id="62lTSYrtV0QLQ5MVQQvt-20" style="edgeStyle=orthogonalEdgeStyle;rounded=0;orthogonalLoop=1;jettySize=auto;html=1;exitX=0.5;exitY=1;exitDx=0;exitDy=0;" edge="1" parent="1" source="62lTSYrtV0QLQ5MVQQvt-1" target="62lTSYrtV0QLQ5MVQQvt-4">
          <mxGeometry relative="1" as="geometry" />
        </mxCell>
        <mxCell id="62lTSYrtV0QLQ5MVQQvt-21" style="edgeStyle=orthogonalEdgeStyle;rounded=0;orthogonalLoop=1;jettySize=auto;html=1;exitX=0.5;exitY=1;exitDx=0;exitDy=0;" edge="1" parent="1" source="62lTSYrtV0QLQ5MVQQvt-1" target="62lTSYrtV0QLQ5MVQQvt-5">
          <mxGeometry relative="1" as="geometry" />
        </mxCell>
        <mxCell id="62lTSYrtV0QLQ5MVQQvt-1" value="&lt;font style=&quot;font-size: 17px;&quot;&gt;Line&lt;/font&gt;" style="rounded=0;whiteSpace=wrap;html=1;fillColor=#dae8fc;strokeColor=#6c8ebf;shadow=1;" vertex="1" parent="1">
          <mxGeometry x="410" y="230" width="130" height="50" as="geometry" />
        </mxCell>
        <mxCell id="62lTSYrtV0QLQ5MVQQvt-12" value="" style="edgeStyle=orthogonalEdgeStyle;rounded=0;orthogonalLoop=1;jettySize=auto;html=1;" edge="1" parent="1" source="62lTSYrtV0QLQ5MVQQvt-2" target="62lTSYrtV0QLQ5MVQQvt-6">
          <mxGeometry relative="1" as="geometry" />
        </mxCell>
        <mxCell id="62lTSYrtV0QLQ5MVQQvt-2" value="&lt;font style=&quot;font-size: 17px;&quot;&gt;Node : Words&lt;br&gt;&lt;/font&gt;" style="rounded=0;whiteSpace=wrap;html=1;fillColor=#dae8fc;strokeColor=#6c8ebf;shadow=1;" vertex="1" parent="1">
          <mxGeometry x="150" y="350" width="130" height="50" as="geometry" />
        </mxCell>
        <mxCell id="62lTSYrtV0QLQ5MVQQvt-13" value="" style="edgeStyle=orthogonalEdgeStyle;rounded=0;orthogonalLoop=1;jettySize=auto;html=1;" edge="1" parent="1" source="62lTSYrtV0QLQ5MVQQvt-3" target="62lTSYrtV0QLQ5MVQQvt-8">
          <mxGeometry relative="1" as="geometry" />
        </mxCell>
        <mxCell id="62lTSYrtV0QLQ5MVQQvt-3" value="&lt;font style=&quot;font-size: 17px;&quot;&gt;Node : Aside&lt;br&gt;&lt;/font&gt;" style="rounded=0;whiteSpace=wrap;html=1;fillColor=#dae8fc;strokeColor=#6c8ebf;shadow=1;" vertex="1" parent="1">
          <mxGeometry x="320" y="350" width="130" height="50" as="geometry" />
        </mxCell>
        <mxCell id="62lTSYrtV0QLQ5MVQQvt-14" value="" style="edgeStyle=orthogonalEdgeStyle;rounded=0;orthogonalLoop=1;jettySize=auto;html=1;" edge="1" parent="1" source="62lTSYrtV0QLQ5MVQQvt-4" target="62lTSYrtV0QLQ5MVQQvt-9">
          <mxGeometry relative="1" as="geometry" />
        </mxCell>
        <mxCell id="62lTSYrtV0QLQ5MVQQvt-4" value="&lt;font style=&quot;font-size: 17px;&quot;&gt;Node : Words&lt;br&gt;&lt;/font&gt;" style="rounded=0;whiteSpace=wrap;html=1;fillColor=#dae8fc;strokeColor=#6c8ebf;shadow=1;" vertex="1" parent="1">
          <mxGeometry x="490" y="350" width="130" height="50" as="geometry" />
        </mxCell>
        <mxCell id="62lTSYrtV0QLQ5MVQQvt-15" value="" style="edgeStyle=orthogonalEdgeStyle;rounded=0;orthogonalLoop=1;jettySize=auto;html=1;" edge="1" parent="1" source="62lTSYrtV0QLQ5MVQQvt-5" target="62lTSYrtV0QLQ5MVQQvt-11">
          <mxGeometry relative="1" as="geometry" />
        </mxCell>
        <mxCell id="62lTSYrtV0QLQ5MVQQvt-5" value="&lt;font style=&quot;font-size: 17px;&quot;&gt;Node : Note&lt;br&gt;&lt;/font&gt;" style="rounded=0;whiteSpace=wrap;html=1;fillColor=#dae8fc;strokeColor=#6c8ebf;shadow=1;" vertex="1" parent="1">
          <mxGeometry x="660" y="350" width="130" height="50" as="geometry" />
        </mxCell>
        <mxCell id="62lTSYrtV0QLQ5MVQQvt-6" value="&lt;pre&gt;&lt;font style=&quot;font-size: 17px;&quot;&gt;We are going to&lt;/font&gt;&lt;/pre&gt;" style="rounded=0;whiteSpace=wrap;html=1;fillColor=#f8cecc;strokeColor=#b85450;shadow=1;" vertex="1" parent="1">
          <mxGeometry x="135" y="460" width="160" height="50" as="geometry" />
        </mxCell>
        <mxCell id="62lTSYrtV0QLQ5MVQQvt-8" value="&lt;pre&gt;&lt;font style=&quot;font-size: 17px;&quot;&gt;really&lt;/font&gt;&lt;/pre&gt;" style="rounded=0;whiteSpace=wrap;html=1;fillColor=#f8cecc;strokeColor=#b85450;shadow=1;" vertex="1" parent="1">
          <mxGeometry x="347.5" y="460" width="75" height="50" as="geometry" />
        </mxCell>
        <mxCell id="62lTSYrtV0QLQ5MVQQvt-9" value="&lt;pre&gt;&lt;font style=&quot;font-size: 17px;&quot;&gt;sing this song&lt;/font&gt;&lt;/pre&gt;" style="rounded=0;whiteSpace=wrap;html=1;fillColor=#f8cecc;strokeColor=#b85450;shadow=1;" vertex="1" parent="1">
          <mxGeometry x="480" y="460" width="150" height="50" as="geometry" />
        </mxCell>
        <mxCell id="62lTSYrtV0QLQ5MVQQvt-11" value="&lt;pre&gt;&lt;font style=&quot;font-size: 17px;&quot;&gt;A Comment Here&lt;/font&gt;&lt;/pre&gt;" style="rounded=0;whiteSpace=wrap;html=1;fillColor=#f8cecc;strokeColor=#b85450;shadow=1;" vertex="1" parent="1">
          <mxGeometry x="650" y="460" width="150" height="50" as="geometry" />
        </mxCell>
      </root>
    </mxGraphModel>
  </diagram>
</mxfile>
